# xmcd
#
# Track frame offsets:
#	150
#	25673
#	45789
#	64790
#	88104
#	106358
#	126028
#
# Disc length: 1876 seconds
#
# Revision: 0
# Processed by: cddbd v1.5.2PL0 Copyright (c) Steve Scherf et al.
# Submitted via: EZCDAudioConverter 6.0.9.1
#
DISCID=4d075207
DTITLE=Eamonn McCormack - Like There's No Tomorrow CD 2
DYEAR=2017
DGENRE=Blues
TTITLE0=No Airs And Graces
TTITLE1=You Take My Blues Away
TTITLE2=It's Not The Spotlight
TTITLE3=Heaven's Cry
TTITLE4=Breaking Down
TTITLE5=This Guilt I Feel Inside
TTITLE6=Angel
EXTD=
EXTT0=
EXTT1=
EXTT2=
EXTT3=
EXTT4=
EXTT5=
EXTT6=
PLAYORDER=
